<?xml version="1.0" encoding="UTF-8" standalone="no"?>
<!DOCTYPE svg PUBLIC "-//W3C//DTD SVG 1.1//EN" "http://www.w3.org/Graphics/SVG/1.1/DTD/svg11.dtd">
<svg width="100%" height="100%" viewBox="0 0 512 512" version="1.1" xmlns="http://www.w3.org/2000/svg" xmlns:xlink="http://www.w3.org/1999/xlink" xml:space="preserve" xmlns:serif="http://www.serif.com/" style="fill-rule:evenodd;clip-rule:evenodd;stroke-linejoin:round;stroke-miterlimit:2;">
    <g transform="matrix(0.657313,0,0,0.657313,87.7277,14.1086)">
        <g>
            <path d="M397.344,216.64L269.664,7.68C266.752,2.912 261.568,0 256,0C250.432,0 245.248,2.912 242.336,7.648L114.656,216.608C110.496,223.392 112,232.224 118.144,237.312C124.256,242.336 133.216,242.144 139.104,236.768C170.688,207.904 212.224,192 256,192C299.776,192 341.312,207.904 372.896,236.768C378.752,242.112 387.68,242.336 393.856,237.312C400,232.224 401.504,223.392 397.344,216.64Z" style="fill-rule:nonzero;"/>
        </g>
    </g>
    <g>
        <g transform="matrix(-0.657313,8.04977e-17,-8.04977e-17,-0.657313,424.477,497.891)">
            <path d="M292.334,195.73C322.415,202.002 269.664,7.68 269.664,7.68C266.752,2.912 261.568,0 256,0C250.432,0 245.248,2.912 242.336,7.648C242.336,7.648 189.585,202.002 219.666,195.73C231.484,193.265 243.653,192 256,192C268.347,192 280.516,193.265 292.334,195.73Z" style="fill-rule:nonzero;"/>
        </g>
        <path d="M256,161.347C308.24,161.347 350.653,203.76 350.653,256C350.653,308.24 308.24,350.653 256,350.653C203.76,350.653 161.347,308.24 161.347,256C161.347,203.76 203.76,161.347 256,161.347ZM256,199.944C286.938,199.944 312.056,225.062 312.056,256C312.056,286.938 286.938,312.056 256,312.056C225.062,312.056 199.944,286.938 199.944,256C199.944,225.062 225.062,199.944 256,199.944Z"/>
    </g>
</svg>
