<?xml version="1.0" encoding="UTF-8" standalone="no"?>
<!DOCTYPE svg PUBLIC "-//W3C//DTD SVG 1.1//EN" "http://www.w3.org/Graphics/SVG/1.1/DTD/svg11.dtd">
<svg width="100%" height="100%" viewBox="0 0 512 512" version="1.1" xmlns="http://www.w3.org/2000/svg" xmlns:xlink="http://www.w3.org/1999/xlink" xml:space="preserve" xmlns:serif="http://www.serif.com/" style="fill-rule:evenodd;clip-rule:evenodd;stroke-linecap:round;stroke-linejoin:round;stroke-miterlimit:1.5;">
    <g id="Layer1">
    </g>
    <g transform="matrix(0.819709,0,0,0.819709,46.1566,46.1545)">
        <path d="M334.449,486.645L285.461,451.332C280.855,448.012 278.125,442.68 278.125,436.996L278.125,354.762L233.898,354.762L233.898,436.996C233.898,442.68 231.168,448.012 226.563,451.336L177.574,486.645C166.551,494.59 172.172,512 185.762,512L326.262,512C339.852,512 345.473,494.59 334.449,486.645Z" style="fill:#BEBECB;fill-rule:nonzero;"/>
    </g>
    <g transform="matrix(0.819709,0,0,0.819709,46.1566,46.1545)">
        <path d="M334.449,486.645L285.461,451.332C280.855,448.012 278.125,442.676 278.125,436.996L278.125,354.762L246.137,354.762L246.137,436.996C246.137,442.676 248.867,448.012 253.477,451.332L302.461,486.645C313.484,494.59 307.863,512 294.273,512L326.262,512C339.852,512 345.473,494.59 334.449,486.645Z" style="fill:#A9AFB6;fill-rule:nonzero;"/>
    </g>
    <g transform="matrix(0.819709,0,0,0.819709,46.1566,46.1545)">
        <path d="M342.93,83.313L346.391,6.879C346.559,3.133 343.566,0 339.813,0L172.207,0C168.453,0 165.461,3.133 165.633,6.883L169.094,83.316C169.434,90.84 167.469,98.281 163.469,104.664C145.102,133.965 134,172.09 134,213.77C134,306.23 188.625,381.188 256.012,381.188C323.398,381.188 378.023,306.23 378.023,213.77C378.023,172.09 366.922,133.965 348.555,104.664C344.555,98.281 342.59,90.84 342.93,83.313Z" style="fill:#BEBECB;fill-rule:nonzero;"/>
    </g>
    <g transform="matrix(0.819709,0,0,0.819709,46.1566,46.1545)">
        <path d="M348.555,104.66C344.555,98.281 342.59,90.84 342.93,83.313L346.391,6.879C346.559,3.133 343.566,0 339.813,0L291.426,0L288.801,58.023C288.461,65.547 290.422,72.988 294.422,79.371C312.789,108.672 323.891,146.797 323.891,188.477C323.891,280.938 269.266,355.895 201.879,355.895C198.102,355.895 194.371,355.645 190.684,355.188C209.57,371.648 231.977,381.188 256.012,381.188C323.395,381.188 378.023,306.23 378.023,213.77C378.023,172.09 366.922,133.965 348.555,104.66Z" style="fill:#A9AFB6;fill-rule:nonzero;"/>
    </g>
    <g>
        <clipPath id="_clip1">
            <rect x="155.998" y="310" width="200.028" height="48.618"/>
        </clipPath>
        <g clip-path="url(#_clip1)">
            <g transform="matrix(0.819709,0,0,0.819709,46.1566,46.1545)">
                <path d="M342.93,83.313L346.391,6.879C346.559,3.133 343.566,0 339.813,0L172.207,0C168.453,0 165.461,3.133 165.633,6.883L169.094,83.316C169.434,90.84 167.469,98.281 163.469,104.664C145.102,133.965 134,172.09 134,213.77C134,306.23 188.625,381.188 256.012,381.188C323.398,381.188 378.023,306.23 378.023,213.77C378.023,172.09 366.922,133.965 348.555,104.664C344.555,98.281 342.59,90.84 342.93,83.313Z" style="fill:rgb(255,240,198);fill-rule:nonzero;"/>
            </g>
            <g transform="matrix(0.819709,0,0,0.819709,46.1566,46.1545)">
                <path d="M348.555,104.66C344.555,98.281 342.59,90.84 342.93,83.313L346.391,6.879C346.559,3.133 343.566,0 339.813,0L291.426,0L288.801,58.023C288.461,65.547 290.422,72.988 294.422,79.371C312.789,108.672 323.891,146.797 323.891,188.477C323.891,280.938 269.266,355.895 201.879,355.895C198.102,355.895 194.371,355.645 190.684,355.188C209.57,371.648 231.977,381.188 256.012,381.188C323.395,381.188 378.023,306.23 378.023,213.77C378.023,172.09 366.922,133.965 348.555,104.66Z" style="fill:rgb(255,232,170);fill-rule:nonzero;"/>
            </g>
            <g>
                <g transform="matrix(0.66952,0,0,0.66952,63.6795,73.0273)">
                    <circle cx="224.331" cy="186.246" r="6.965" style="fill:none;stroke:rgb(255,232,170);stroke-width:2.92px;"/>
                </g>
                <g transform="matrix(0.38838,0,0,0.38838,131.411,112.362)">
                    <circle cx="224.331" cy="186.246" r="6.965" style="fill:none;stroke:rgb(255,232,170);stroke-width:2.92px;"/>
                </g>
                <g transform="matrix(0.38838,0,0,0.38838,124.043,103.844)">
                    <circle cx="224.331" cy="186.246" r="6.965" style="fill:none;stroke:rgb(255,232,170);stroke-width:2.92px;"/>
                </g>
                <g transform="matrix(0.206306,0,0,0.206306,170.819,130.493)">
                    <circle cx="224.331" cy="186.246" r="6.965" style="fill:none;stroke:rgb(255,232,170);stroke-width:5.05px;"/>
                </g>
                <g transform="matrix(0.206306,0,0,0.206306,165.819,123.493)">
                    <circle cx="224.331" cy="186.246" r="6.965" style="fill:none;stroke:rgb(255,232,170);stroke-width:5.05px;"/>
                </g>
            </g>
            <g transform="matrix(1,0,0,1,74.741,59.2758)">
                <g transform="matrix(0.66952,0,0,0.66952,63.6795,73.0273)">
                    <circle cx="224.331" cy="186.246" r="6.965" style="fill:none;stroke:rgb(255,232,170);stroke-width:2.92px;"/>
                </g>
                <g transform="matrix(0.38838,0,0,0.38838,132.411,113.362)">
                    <circle cx="224.331" cy="186.246" r="6.965" style="fill:none;stroke:rgb(255,232,170);stroke-width:2.92px;"/>
                </g>
                <g transform="matrix(0.38838,0,0,0.38838,125.043,105.844)">
                    <circle cx="224.331" cy="186.246" r="6.965" style="fill:none;stroke:rgb(255,232,170);stroke-width:2.92px;"/>
                </g>
                <g transform="matrix(0.38838,0,0,0.38838,132.043,98.844)">
                    <circle cx="224.331" cy="186.246" r="6.965" style="fill:none;stroke:rgb(255,232,170);stroke-width:2.92px;"/>
                </g>
                <g transform="matrix(0.206306,0,0,0.206306,165.819,127.493)">
                    <circle cx="224.331" cy="186.246" r="6.965" style="fill:none;stroke:rgb(255,232,170);stroke-width:5.05px;"/>
                </g>
                <g transform="matrix(0.206306,0,0,0.206306,170.819,120.493)">
                    <circle cx="224.331" cy="186.246" r="6.965" style="fill:none;stroke:rgb(255,232,170);stroke-width:5.05px;"/>
                </g>
            </g>
            <g transform="matrix(1,0,0,1,74.4462,-54.1679)">
                <g transform="matrix(0.66952,0,0,0.66952,64.6795,72.0273)">
                    <circle cx="224.331" cy="186.246" r="6.965" style="fill:none;stroke:rgb(255,232,170);stroke-width:2.92px;"/>
                </g>
                <g transform="matrix(0.38838,0,0,0.38838,131.411,112.362)">
                    <circle cx="224.331" cy="186.246" r="6.965" style="fill:none;stroke:rgb(255,232,170);stroke-width:2.92px;"/>
                </g>
                <g transform="matrix(0.38838,0,0,0.38838,125.043,102.844)">
                    <circle cx="224.331" cy="186.246" r="6.965" style="fill:none;stroke:rgb(255,232,170);stroke-width:2.92px;"/>
                </g>
                <g transform="matrix(0.206306,0,0,0.206306,174.819,132.493)">
                    <circle cx="224.331" cy="186.246" r="6.965" style="fill:none;stroke:rgb(255,220,125);stroke-width:5.05px;"/>
                </g>
                <g transform="matrix(0.206306,0,0,0.206306,169.819,125.493)">
                    <circle cx="224.331" cy="186.246" r="6.965" style="fill:none;stroke:rgb(255,220,125);stroke-width:5.05px;"/>
                </g>
            </g>
        </g>
    </g>
</svg>
