<?xml version="1.0" encoding="UTF-8" standalone="no"?>
<!DOCTYPE svg PUBLIC "-//W3C//DTD SVG 1.1//EN" "http://www.w3.org/Graphics/SVG/1.1/DTD/svg11.dtd">
<svg width="100%" height="100%" viewBox="0 0 512 512" version="1.1" xmlns="http://www.w3.org/2000/svg" xmlns:xlink="http://www.w3.org/1999/xlink" xml:space="preserve" xmlns:serif="http://www.serif.com/" style="fill-rule:evenodd;clip-rule:evenodd;stroke-linejoin:round;stroke-miterlimit:2;">
    <g transform="matrix(0.945482,0,0,0.945482,13.9567,13.9567)">
        <path d="M366.39,125.45L86.5,126L86.5,462C86.5,484.09 104.41,502 126.5,502L326.5,502C348.59,502 366.5,484.09 366.5,462L366.5,125.65L366.39,125.45Z" style="fill:rgb(255,128,34);fill-rule:nonzero;"/>
        <path d="M366.5,462L366.5,125.65L366.39,125.45L86.5,126L86.5,462L366.5,462Z" style="fill:rgb(255,199,45);fill-rule:nonzero;"/>
        <path d="M466.5,211L466.5,382C466.5,404.09 448.59,422 426.5,422L366.5,422L366.5,382L426.5,382L426.5,211L366.5,211L366.5,171L426.5,171C448.59,171 466.5,188.91 466.5,211Z" style="fill:rgb(255,128,34);fill-rule:nonzero;"/>
        <path d="M145.5,200.29C139.977,200.29 139.731,204.767 139.731,210.29L139.731,401.29C139.731,406.813 139.977,411.29 145.5,411.29C151.023,411.29 151.269,406.813 151.269,401.29L151.269,210.29C151.269,204.767 151.023,200.29 145.5,200.29Z" style="fill:rgb(255,169,34);fill-rule:nonzero;"/>
        <g transform="matrix(1,0,0,1,80,0)">
            <path d="M145.5,200.29C139.977,200.29 139.731,204.767 139.731,210.29L139.731,401.29C139.731,406.813 139.977,411.29 145.5,411.29C151.023,411.29 151.269,406.813 151.269,401.29L151.269,210.29C151.269,204.767 151.023,200.29 145.5,200.29Z" style="fill:rgb(255,169,34);fill-rule:nonzero;"/>
        </g>
        <g transform="matrix(1,0,0,1,80,0)">
            <path d="M225.5,200.29C219.977,200.29 219.731,204.767 219.731,210.29L219.731,401.29C219.731,406.813 219.977,411.29 225.5,411.29C231.023,411.29 231.269,406.813 231.269,401.29L231.269,210.29C231.269,204.767 231.023,200.29 225.5,200.29Z" style="fill:rgb(255,169,34);fill-rule:nonzero;"/>
        </g>
        <path d="M385.45,81.71C393.06,115.483 358.223,142.504 325.5,125.86L325.5,210.29C325.5,221.33 316.55,230.29 305.5,230.29C294.45,230.29 285.5,221.33 285.5,210.29L285.5,170.29C285.5,156.48 286,131 241.5,131C237.89,131 234.44,132.46 231.94,135.05C222.85,144.45 210.11,150.29 196,150.29C182.35,150.29 169.98,144.82 160.96,135.95C157.73,132.78 153.38,131 148.64,131C144.83,131 141.35,133.17 139.68,136.59C130.02,156.37 109.95,170.09 86.5,170.29L86.5,250.07C86,261.33 77.05,270.29 66,270.29C54.95,270.29 45.5,261.33 45.5,250.29L45.5,130.29C45.5,82.72 87.51,44.85 136.26,51.1C149.91,26.77 176.03,10 206,10C229.7,10 250.99,20.59 265.64,36.97C271.68,33.15 278.84,31 286.5,31C303.95,31 318.79,42.17 324.25,57.75C332.84,51.99 343.79,49.47 355.34,51.95C370.02,55.09 382.16,67.07 385.45,81.71Z" style="fill:rgb(255,229,203);fill-rule:nonzero;"/>
    </g>
</svg>
