<?xml version="1.0" encoding="UTF-8" standalone="no"?>
<!DOCTYPE svg PUBLIC "-//W3C//DTD SVG 1.1//EN" "http://www.w3.org/Graphics/SVG/1.1/DTD/svg11.dtd">
<svg width="100%" height="100%" viewBox="0 0 512 512" version="1.1" xmlns="http://www.w3.org/2000/svg" xmlns:xlink="http://www.w3.org/1999/xlink" xml:space="preserve" xmlns:serif="http://www.serif.com/" style="fill-rule:evenodd;clip-rule:evenodd;stroke-linejoin:round;stroke-miterlimit:2;">
    <g transform="matrix(0.945482,0,0,0.945482,13.9567,13.9567)">
        <path d="M366.39,125.45L86.5,126L86.5,462C86.5,484.09 104.41,502 126.5,502L326.5,502C348.59,502 366.5,484.09 366.5,462L366.5,125.65L366.39,125.45Z" style="fill:rgb(255,197,81);fill-rule:nonzero;"/>
        <path d="M366.5,462L366.5,125.65L366.39,125.45L86.5,126L86.5,462L366.5,462Z" style="fill:rgb(255,197,81);fill-rule:nonzero;"/>
        <path d="M466.5,211L466.5,382C466.5,404.09 448.59,422 426.5,422L366.5,422L366.5,382L426.5,382L426.5,211L366.5,211L366.5,171L426.5,171C448.59,171 466.5,188.91 466.5,211Z" style="fill:rgb(255,197,81);fill-rule:nonzero;"/>
        <path d="M145.5,200.29C139.977,200.29 135.5,204.767 135.5,210.29L135.5,401.29C135.5,406.813 139.977,411.29 145.5,411.29C151.023,411.29 155.5,406.813 155.5,401.29L155.5,210.29C155.5,204.767 151.023,200.29 145.5,200.29Z" style="fill:white;fill-rule:nonzero;"/>
        <g transform="matrix(1,0,0,1,80,0)">
            <path d="M145.5,200.29C139.977,200.29 135.5,204.767 135.5,210.29L135.5,401.29C135.5,406.813 139.977,411.29 145.5,411.29C151.023,411.29 155.5,406.813 155.5,401.29L155.5,210.29C155.5,204.767 151.023,200.29 145.5,200.29Z" style="fill:white;fill-rule:nonzero;"/>
        </g>
        <g transform="matrix(1,0,0,1,80,0)">
            <path d="M225.5,200.29C219.977,200.29 215.5,204.767 215.5,210.29L215.5,401.29C215.5,406.813 219.977,411.29 225.5,411.29C231.023,411.29 235.5,406.813 235.5,401.29L235.5,210.29C235.5,204.767 231.023,200.29 225.5,200.29Z" style="fill:white;fill-rule:nonzero;"/>
        </g>
        <path d="M385.45,81.71C393.06,115.483 358.223,142.504 325.5,125.86L325.5,210.29C325.5,221.33 316.55,230.29 305.5,230.29C294.45,230.29 285.5,221.33 285.5,210.29L285.5,170.29C285.5,156.48 286,131 241.5,131C237.89,131 234.44,132.46 231.94,135.05C222.85,144.45 210.11,150.29 196,150.29C182.35,150.29 169.98,144.82 160.96,135.95C157.73,132.78 153.38,131 148.64,131C144.83,131 141.35,133.17 139.68,136.59C130.02,156.37 109.95,170.09 86.5,170.29L86.5,250.07C86,261.33 77.05,270.29 66,270.29C54.95,270.29 45.5,261.33 45.5,250.29L45.5,130.29C45.5,82.72 87.51,44.85 136.26,51.1C149.91,26.77 176.03,10 206,10C229.7,10 250.99,20.59 265.64,36.97C271.68,33.15 278.84,31 286.5,31C303.95,31 318.79,42.17 324.25,57.75C332.84,51.99 343.79,49.47 355.34,51.95C370.02,55.09 382.16,67.07 385.45,81.71Z" style="fill:rgb(255,242,230);fill-rule:nonzero;"/>
        <path d="M128.615,509.885L322.269,509.885C349.839,509.885 374.385,487.455 374.385,459.885L374.385,429.885L426.5,429.885C454.07,429.885 474.385,409.57 474.385,382L474.385,211C474.385,183.43 454.07,163.115 426.5,163.115L374.385,163.115L374.385,130.741C390.06,118.99 397.51,100.186 393.092,80.575C388.959,62.185 375.894,48.234 357.439,44.287C347.628,42.182 337.747,42.927 328.744,46.35C319.716,32.117 303.862,23.115 286.5,23.115C279.956,23.115 273.561,24.384 267.648,26.826C250.91,11.037 228.843,2.115 206,2.115C175.784,2.115 149.719,17.508 133.085,42.694C80.815,39.802 37.615,79.156 37.615,130.29L37.615,250.29C37.615,266.832 49.182,278.175 66,278.175C69.689,278.175 73.224,277.504 76.5,276.282L76.5,459.885C76.5,487.455 101.045,509.885 128.615,509.885ZM322.269,494.115L128.615,494.115C115.579,494.115 100.233,481.524 96.105,469.885L246.01,469.885C251.533,469.885 256.01,467.523 256.01,462C256.01,456.477 251.533,454.115 246.01,454.115L94.385,454.115L94.385,179.506C116.848,176.115 138.414,160.91 148.64,139.943C150.726,139.943 152.564,140.665 153.949,142.024C165.235,153.122 180.169,158.176 196,158.176C212.408,158.176 227.725,151.681 239.135,139.881C239.745,139.249 240.608,138.886 241.5,138.886C257.067,138.886 269.368,143.268 273.892,149.824C277.621,155.229 277.618,163.797 277.615,169.832L277.615,210.291C277.615,223.327 283.861,232.328 295.5,236.456C302.167,238.781 308.833,238.656 315.5,236.455C327.139,232.327 333.385,223.327 333.385,210.29L333.385,137.711C340.39,139.109 351.769,137.002 358.615,135.602L356.5,454.115L325.99,454.115C320.467,454.115 315.99,456.477 315.99,462C315.99,467.523 320.467,469.785 325.99,469.785L354.78,469.785C350.652,481.424 335.305,494.115 322.269,494.115ZM374.385,221L418.615,221L418.615,372L374.385,372L374.385,221ZM426.5,178.885C443.042,178.885 458.615,194.458 458.615,211L458.615,382C458.615,398.542 443.042,414.115 426.5,414.115L374.385,414.115L374.385,392L424.385,392C429.908,392 434.385,387.523 434.385,382L434.385,211C434.385,205.477 429.908,201 424.385,201L374.385,201L374.385,178.885L426.5,178.885ZM66,262.405C60.309,262.405 53.385,255.71 53.385,250.29L53.385,130.29C53.385,91.694 87.082,58.323 125.907,58.323C128.924,58.323 131.957,58.515 134.988,58.904C139.033,59.423 142.986,57.433 144.981,53.878C157.437,31.677 180.818,17.885 206,17.885C225.73,17.885 244.752,26.5 258.187,41.522C261.443,45.164 266.855,45.92 270.986,43.307C275.559,40.414 280.924,38.885 286.5,38.885C299.23,38.885 310.608,46.946 314.813,58.942C315.836,61.862 318.154,64.145 321.09,65.123C324.025,66.101 327.249,65.665 329.819,63.941C336.635,59.371 346.011,57.834 354.306,59.614C365.106,61.924 375.393,73.157 377.809,83.908C383.501,109.172 355.489,132.011 330.033,119.062C326.933,117.485 324.295,116.575 321.329,118.394C318.364,120.212 317.614,123.44 317.614,126.918L317.614,210.29C317.614,215.804 311.013,222.405 305.499,222.405C299.985,222.405 293.384,215.804 293.384,210.29L293.384,169.838C293.387,161.962 294.449,152.174 287.18,141.638C278.701,129.347 264.034,123.115 241.5,123.115C235.21,123.115 229.104,125.704 224.751,130.214C217.149,138.076 206.938,142.405 196,142.405C185.447,142.405 175.493,138.332 167.965,130.928C162.832,125.889 155.969,123.115 148.64,123.115C141.061,123.115 136.132,127.512 132.809,134.317C124.427,151.481 107.459,161.187 88.529,161.349C83.04,161.396 78.614,164.801 78.614,170.291L78.614,249.816C78.262,255.705 71.568,262.405 66,262.405Z" style="fill:rgb(217,149,23);fill-rule:nonzero;"/>
    </g>
</svg>
